<svg width="48" height="34" viewBox="0 0 48 34" fill="none" xmlns="http://www.w3.org/2000/svg">
<path d="M48 29.75V4.25C48 1.89833 46.1093 0 43.7672 0H4.2328C1.89065 0 0 1.89833 0 4.25V29.75C0 32.1017 1.89065 34 4.2328 34H43.7672C46.1093 34 48 32.1017 48 29.75ZM44.3034 3.93833C45.2346 4.87333 44.7266 5.83667 44.2187 6.31833L32.7619 16.8583L43.7672 28.3617C44.1058 28.7583 44.3316 29.3817 43.9365 29.8067C43.5697 30.26 42.7231 30.2317 42.3563 29.9483L30.0247 19.38L23.9859 24.905L17.9753 19.38L5.64374 29.9483C5.2769 30.2317 4.43034 30.26 4.06349 29.8067C3.66843 29.3817 3.89418 28.7583 4.2328 28.3617L15.2381 16.8583L3.7813 6.31833C3.27337 5.83667 2.76543 4.87333 3.69665 3.93833C4.62787 3.00333 5.5873 3.45667 6.37742 4.13667L23.9859 18.4167L41.6226 4.13667C42.4127 3.45667 43.3721 3.00333 44.3034 3.93833Z" fill="white"/>
</svg>
