<svg width="41" height="41" viewBox="0 0 41 41" fill="none" xmlns="http://www.w3.org/2000/svg">
<path d="M20.5 41C31.8218 41 41 31.8218 41 20.5C41 9.17816 31.8218 0 20.5 0C9.17816 0 0 9.17816 0 20.5C0 31.8218 9.17816 41 20.5 41Z" fill="white"/>
<path d="M32.7484 22.1504V30.6021H27.8483V22.7168C27.8483 20.7369 27.1408 19.3848 25.3667 19.3848C24.0127 19.3848 23.2084 20.2951 22.8532 21.1765C22.7242 21.4915 22.691 21.929 22.691 22.3708V30.6018H17.7905C17.7905 30.6018 17.8563 17.2467 17.7905 15.8642H22.6913V17.9527C22.6815 17.9691 22.6676 17.9852 22.6588 18.0009H22.6913V17.9527C23.3425 16.9507 24.5039 15.5182 27.1076 15.5182C30.3314 15.5182 32.7484 17.6245 32.7484 22.1504ZM12.6643 8.76025C10.988 8.76025 9.89136 9.86057 9.89136 11.3062C9.89136 12.7212 10.9562 13.8533 12.5999 13.8533H12.6317C14.3409 13.8533 15.4035 12.7212 15.4035 11.3062C15.371 9.86057 14.3409 8.76025 12.6643 8.76025ZM10.1826 30.6021H15.0812V15.8642H10.1826V30.6021Z" fill="#007AB9"/>
</svg>
