<svg width="50" height="23" viewBox="0 0 50 23" fill="none" xmlns="http://www.w3.org/2000/svg">
<path fill-rule="evenodd" clip-rule="evenodd" d="M8.13415 14.2687C8.11905 14.3665 8.08226 14.4596 8.02653 14.541C7.9708 14.6224 7.89758 14.69 7.81236 14.7388C7.64074 14.8509 7.49057 14.9069 7.33861 14.963C7.01503 15.076 6.67447 15.189 6.31425 15.3201C5.93435 15.4512 5.59379 15.5822 5.28988 15.6772C4.91088 15.8083 4.55066 15.9213 4.20831 16.0524C3.95074 16.1638 3.7088 16.3091 3.48875 16.4845C3.28408 16.672 3.10548 16.8867 2.95779 17.1228C2.80584 17.3849 2.71019 17.723 2.71019 18.1172C2.71019 18.9064 2.89969 19.5067 3.27958 19.8819C3.65858 20.277 4.36116 20.4641 5.40251 20.4641C6.46442 20.4641 7.18487 20.258 7.56565 19.8449C7.94376 19.4317 8.13326 18.8504 8.13326 18.1V14.2687H8.13415ZM5.4034 5.95138C7.26263 5.95138 8.62756 6.30848 9.49908 7.04076C10.3715 7.75496 10.8077 8.67348 10.8077 9.76196V19.0375C10.8077 19.4127 10.7326 19.8259 10.6003 20.2761C10.4662 20.7281 10.2017 21.1404 9.78422 21.5146C9.38645 21.8916 8.83673 22.2108 8.13504 22.4549C7.43336 22.6989 6.52341 22.83 5.40429 22.83C4.28697 22.83 3.37523 22.6989 2.67444 22.4549C1.97365 22.2108 1.42303 21.8916 1.02526 21.5146C0.655229 21.1774 0.374913 20.7515 0.210058 20.2761C0.0759783 19.8268 0 19.4136 0 19.0384V17.5558C0 16.7666 0.20827 16.0343 0.625704 15.3951C1.04314 14.7388 1.63041 14.2885 2.3893 14.0065C2.76829 13.8754 3.2045 13.7443 3.69702 13.5753C4.19043 13.4053 4.64451 13.2362 5.10038 13.0871C5.55625 12.9361 5.95402 12.7851 6.29458 12.6531C6.5001 12.57 6.70884 12.4952 6.92029 12.4289L7.26174 12.2599C7.39582 12.1848 7.52722 12.0718 7.6604 11.9217C7.7927 11.7726 7.90622 11.6035 8.00186 11.4155C8.10291 11.2118 8.15498 10.987 8.15382 10.7591V10.1579C8.15522 9.93759 8.10948 9.71955 8.01974 9.51877C7.94465 9.29276 7.7927 9.08663 7.58442 8.89949C7.37615 8.71145 7.09101 8.56138 6.75045 8.44747C6.409 8.33627 5.95491 8.27931 5.44184 8.27931C4.37993 8.27931 3.67825 8.48725 3.29925 8.91757C2.97746 9.29366 2.78796 9.76286 2.75042 10.2881C2.75042 10.4011 2.65567 10.4762 2.54125 10.4762L0.228829 10.5141C0.173899 10.5144 0.121099 10.4927 0.0819236 10.4537C0.0427486 10.4148 0.0203717 10.3617 0.019665 10.3062V9.76377C0.019665 9.2367 0.115308 8.74852 0.323578 8.27931C0.532742 7.80921 0.855427 7.41594 1.29074 7.07692C1.72694 6.73971 2.29633 6.45855 2.97835 6.27051C3.64249 6.0445 4.45769 5.95138 5.40519 5.95138H5.4034ZM47.3256 14.2687C47.3105 14.3665 47.2737 14.4596 47.2179 14.541C47.1622 14.6224 47.089 14.69 47.0038 14.7388C46.8339 14.8509 46.682 14.9069 46.53 14.963C46.2082 15.076 45.8659 15.189 45.5057 15.3201C45.1258 15.4512 44.7843 15.5822 44.4813 15.6772C44.1014 15.8083 43.7412 15.9213 43.3997 16.0524C43.1418 16.1638 42.8996 16.3091 42.6793 16.4845C42.4749 16.6721 42.2966 16.8868 42.1492 17.1228C41.9972 17.3849 41.9025 17.723 41.9025 18.1172C41.9025 18.9064 42.0902 19.5067 42.4701 19.8819C42.8491 20.277 43.5517 20.4641 44.5939 20.4641C45.6576 20.4641 46.3772 20.258 46.7571 19.8449C47.1352 19.4317 47.3247 18.8504 47.3247 18.1V14.2687H47.3256ZM44.5957 5.95138C46.4549 5.95138 47.8199 6.30848 48.6923 7.04076C49.5638 7.75496 50 8.67348 50 9.76196V19.0375C50 19.4127 49.9249 19.8259 49.7917 20.2761C49.6594 20.7281 49.394 21.1404 48.9765 21.5146C48.5788 21.8916 48.029 22.2108 47.3273 22.4549C46.6266 22.6989 45.7157 22.83 44.5975 22.83C43.4802 22.83 42.5684 22.6989 41.8676 22.4549C41.1668 22.2108 40.6162 21.8916 40.2185 21.5146C39.849 21.1772 39.5694 20.7513 39.405 20.2761C39.271 19.8259 39.195 19.4127 39.195 19.0375V17.5549C39.195 16.7657 39.4042 16.0334 39.8207 15.3942C40.2381 14.7379 40.8263 14.2876 41.5843 14.0056C41.9633 13.8745 42.3995 13.7434 42.8929 13.5743C43.3845 13.4044 43.8404 13.2353 44.2963 13.0862C44.7521 12.9352 45.149 12.7842 45.4905 12.6522C45.696 12.569 45.9047 12.4943 46.1162 12.428L46.4576 12.259C46.5899 12.1839 46.7231 12.0709 46.8554 11.9208C46.9911 11.7683 47.1059 11.598 47.1968 11.4146C47.2979 11.2109 47.35 10.9861 47.3488 10.7582V10.157C47.3502 9.93669 47.3045 9.71865 47.2147 9.51786C47.1396 9.29185 46.9886 9.08573 46.7794 8.89859C46.5711 8.71055 46.2878 8.56047 45.9454 8.44656C45.604 8.33536 45.1499 8.27841 44.6368 8.27841C43.5749 8.27841 42.8741 8.48634 42.4942 8.91667C42.1724 9.29276 41.9829 9.76196 41.9445 10.2872C41.9445 10.4002 41.8507 10.4753 41.7371 10.4753H39.4372C39.3829 10.475 39.3308 10.4534 39.2921 10.4149C39.2533 10.3763 39.231 10.3241 39.2298 10.2691V9.72399C39.2298 9.19964 39.3246 8.71145 39.5338 8.24134C39.742 7.77304 40.0638 7.37797 40.4991 7.04076C40.9371 6.70265 41.5047 6.42058 42.1885 6.23344C42.8321 6.04359 43.6473 5.95047 44.5957 5.95047V5.95138ZM36.4616 6.02641H37.9793C38.1116 6.02641 38.2064 6.15841 38.1688 6.28859L37.6566 8.24134C37.6388 8.33627 37.5431 8.39232 37.4672 8.39232H36.4052C35.8367 8.39232 35.3818 8.46736 35.0215 8.61833C34.6792 8.7675 34.3958 8.93656 34.2054 9.14268C34.0159 9.35061 33.9015 9.55583 33.8452 9.76286C33.7942 9.96522 33.7687 10.1733 33.7692 10.3821V22.4549C33.7681 22.5102 33.7454 22.5629 33.706 22.6015C33.6667 22.6401 33.614 22.6615 33.5592 22.661H31.2852C31.2307 22.661 31.1784 22.6394 31.1395 22.6009C31.1006 22.5624 31.0781 22.5099 31.0769 22.4549V9.837C31.0769 9.61279 31.1145 9.27467 31.2092 8.84254C31.2852 8.4113 31.5131 7.99815 31.8734 7.56601C32.2336 7.15286 32.7645 6.77768 33.485 6.47754C34.2063 6.17558 35.1923 6.02551 36.4616 6.02551V6.02641ZM28.8012 18.6244V19.1876C28.8012 19.4317 28.7654 19.7698 28.6698 20.202C28.5938 20.6142 28.3658 21.0463 28.0056 21.4586C27.6454 21.8726 27.1144 22.2478 26.394 22.548C25.6735 22.849 24.6867 23 23.4174 23C22.1481 23 21.1613 22.849 20.4409 22.548C19.7204 22.2478 19.1894 21.8916 18.8292 21.4595C18.469 21.0472 18.2411 20.6151 18.1651 20.1848C18.09 19.7508 18.0337 19.4326 18.0337 19.1885V6.55257C18.0337 6.43957 18.1284 6.34464 18.242 6.34464H20.4981C20.6125 6.34464 20.7072 6.43957 20.7072 6.55257V18.3803C20.7072 18.7745 20.7635 19.0565 20.8207 19.2816C20.8788 19.5076 20.9924 19.7318 21.1631 19.9199C21.3329 20.126 21.5993 20.2951 21.9586 20.4262C22.3001 20.5582 22.7747 20.6341 23.362 20.6341C23.9698 20.6341 24.4614 20.5582 24.8226 20.4262C25.1828 20.2951 25.4483 20.126 25.6378 19.938C25.8255 19.7508 25.9596 19.5447 26.0159 19.3187C26.0731 19.0927 26.15 18.9065 26.15 18.3604V6.53449C26.15 6.42239 26.2438 6.32837 26.3573 6.32837H28.6134C28.7261 6.32837 28.8208 6.42239 28.8208 6.5363V18.6262H28.8029L28.8012 18.6244ZM13.2739 0.000904048H15.5309C15.6444 0.000904048 15.7391 0.0940214 15.7391 0.206124V22.567C15.7384 22.6224 15.7162 22.6752 15.6772 22.7142C15.6382 22.7531 15.5856 22.7749 15.5309 22.7749H13.2739C13.2191 22.7749 13.1665 22.7531 13.1275 22.7142C13.0885 22.6752 13.0663 22.6224 13.0656 22.567V0.206124C13.0835 0.0940214 13.1603 0 13.2739 0V0.000904048Z" fill="white"/>
</svg>
