<svg width="89" height="21" viewBox="0 0 89 21" fill="none" xmlns="http://www.w3.org/2000/svg">
<g clip-path="url(#clip0_828_76)">
<path d="M0.000976562 0.905861C2.90239 0.905861 5.80365 0.904933 8.70476 0.903076C8.82102 0.903076 8.85089 0.930922 8.84905 1.04834C8.84262 1.5941 8.84262 2.13987 8.84905 2.68564C8.84905 2.79888 8.82653 2.83461 8.70568 2.83415C6.68976 2.82997 4.67384 2.83415 2.65747 2.82858C2.54718 2.82858 2.51961 2.85457 2.51961 2.96781C2.52359 4.50054 2.52359 6.03342 2.51961 7.56646C2.51961 7.67181 2.54672 7.70197 2.65241 7.70197C4.60721 7.69888 6.56186 7.69888 8.51636 7.70197C8.70016 7.70197 8.66984 7.69269 8.66984 7.85698C8.66984 8.39486 8.66662 8.9332 8.67305 9.47108C8.67305 9.58292 8.63813 9.60241 8.53795 9.60195C6.58315 9.59917 4.6285 9.59917 2.67401 9.60195C2.52145 9.60195 2.52145 9.60195 2.52145 9.75974C2.52145 12.0242 2.52145 14.2886 2.52145 16.5531C2.52145 16.7336 2.53707 16.7099 2.37027 16.7099C1.58081 16.7099 0.791352 16.7088 0.0018951 16.7067L0.000976562 0.905861Z" fill="white"/>
<path d="M51.8688 21C51.8523 20.9348 51.8493 20.8669 51.86 20.8006C51.8708 20.7342 51.8951 20.6708 51.9313 20.6143C52.657 19.0903 53.3812 17.5656 54.1039 16.0403C54.1187 16.0144 54.1264 15.985 54.1264 15.9551C54.1264 15.9252 54.1187 15.8959 54.1039 15.87C52.9285 13.4378 51.7542 11.0049 50.5812 8.57125C50.2347 7.85284 49.8886 7.13427 49.5427 6.41556L49.5032 6.33248C49.5398 6.31655 49.5802 6.31187 49.6194 6.31903C50.4208 6.31903 51.2218 6.31903 52.0227 6.31624C52.0593 6.3115 52.0963 6.31981 52.1275 6.33972C52.1586 6.35964 52.1818 6.38991 52.1932 6.4253C53.2474 8.70614 54.3043 10.9861 55.3639 13.265C55.3814 13.3026 55.3998 13.3402 55.4246 13.3917C55.6222 12.9425 55.8129 12.51 56.0031 12.0751C56.8303 10.1878 57.6574 8.29929 58.4845 6.40952C58.5093 6.35337 58.5305 6.31671 58.6045 6.31671C59.3443 6.32042 60.0841 6.31903 60.8239 6.31949C60.8428 6.31949 60.8616 6.32227 60.9002 6.32506L54.1912 21.0005L51.8688 21Z" fill="#FFCD00"/>
<path d="M32.3402 0C32.3402 0.0542983 32.3375 0.108597 32.3375 0.162431C32.3375 5.62413 32.3375 11.0858 32.3375 16.5475C32.3375 16.7267 32.3623 16.7053 32.1771 16.7058C31.4759 16.7058 30.7742 16.7058 30.073 16.709C29.9631 16.709 29.9351 16.6835 29.9351 16.5698C29.9385 13.922 29.9394 11.2744 29.9379 8.62694C29.9379 5.80528 29.9379 2.98347 29.9379 0.161503C29.9379 0.107668 29.9314 0.0542983 29.9282 0.000464055L32.3402 0Z" fill="white"/>
<path d="M76.0894 0C76.0764 0.0565741 76.0732 0.114958 76.0797 0.172641C76.0797 5.61516 76.0797 11.0575 76.0797 16.4997C76.0777 16.5384 76.0777 16.5771 76.0797 16.6158C76.0871 16.6877 76.0576 16.7086 75.9878 16.7086C75.7654 16.7049 75.5434 16.7086 75.321 16.7086C74.8226 16.7086 74.3243 16.7086 73.8262 16.7086C73.6539 16.7086 73.6773 16.7267 73.6773 16.5503C73.6773 11.4453 73.6773 6.34038 73.6773 1.2354C73.6773 0.825149 73.6773 0.414895 73.675 0.00464077L76.0894 0Z" fill="#FFCD00"/>
<path d="M26.6356 0C26.6356 5.51708 26.6356 11.0342 26.6356 16.5512C26.6356 16.7276 26.6618 16.7053 26.4849 16.7058C25.7758 16.7058 25.0663 16.7058 24.3573 16.7086C24.2603 16.7086 24.2378 16.6812 24.2383 16.5861C24.2404 11.0882 24.2404 5.59041 24.2383 0.0928176C24.2383 0.0617237 24.2383 0.0310939 24.2415 0H26.6356Z" fill="white"/>
<path d="M85.0576 11.9634C83.7962 11.9634 82.5353 11.9634 81.2744 11.9606C81.1678 11.9606 81.1365 11.988 81.1476 12.0942C81.1702 12.7022 81.3708 13.2897 81.7239 13.7825C82.0771 14.2753 82.567 14.6513 83.1318 14.863C83.7558 15.1183 84.4316 15.2176 85.1017 15.1526C86.196 15.0733 87.2458 14.6828 88.1295 14.0262C88.1838 13.9905 88.2496 13.977 88.3133 13.9886C88.3878 13.9942 88.3593 14.0582 88.3593 14.0977C88.3593 14.5817 88.3593 15.0653 88.3593 15.5494C88.3593 15.7392 88.3547 15.929 88.3593 16.1183C88.3647 16.1538 88.3574 16.19 88.3386 16.2204C88.3197 16.2508 88.2907 16.2734 88.2568 16.284C87.7218 16.5241 87.1605 16.6992 86.5846 16.8057C85.8354 16.9499 85.0719 17.0049 84.31 16.9695C83.2531 16.938 82.2206 16.6408 81.3061 16.1049C80.6354 15.7285 80.0573 15.2042 79.6148 14.5711C79.1723 13.9379 78.8768 13.2122 78.7502 12.4479C78.5824 11.6195 78.6116 10.7627 78.8352 9.94789C79.0589 9.13308 79.4707 8.38346 80.0369 7.76057C80.8511 6.84367 81.9671 6.25643 83.1777 6.10795C84.1663 5.94683 85.1798 6.06273 86.1076 6.44302C86.7189 6.6978 87.267 7.0854 87.7132 7.57828C88.1594 8.07116 88.4926 8.65723 88.6892 9.29485C88.9613 10.1272 89.0574 11.008 88.9714 11.8803C88.9636 11.9824 88.908 11.9647 88.8491 11.9647L85.0576 11.9634ZM83.845 10.4987C84.7073 10.4987 85.5697 10.4987 86.4321 10.4987C86.5152 10.4987 86.5469 10.4824 86.5391 10.3887C86.5294 10.2345 86.5112 10.0809 86.4845 9.92879C86.4349 9.60088 86.3215 9.28615 86.1506 9.00286C85.9798 8.71957 85.7549 8.47336 85.4891 8.27849C85.2002 8.0762 84.8742 7.93405 84.5303 7.86034C84.1864 7.78664 83.8314 7.78285 83.4861 7.84921C82.8715 7.93556 82.3046 8.23154 81.8795 8.68806C81.4544 9.14457 81.1966 9.73417 81.1489 10.359C81.1379 10.4732 81.1678 10.5005 81.2808 10.4982C82.1355 10.4941 82.9902 10.4987 83.845 10.4987Z" fill="#FFCD00"/>
<path d="M18.9791 15.2518C18.5374 15.672 18.0408 16.0291 17.5031 16.3132C16.6738 16.7737 15.738 17.0028 14.7919 16.9768C13.7969 16.9763 12.8391 16.5949 12.1115 15.9094C11.6222 15.4241 11.2832 14.8056 11.1355 14.1292C11.0464 13.7448 11.0029 13.3511 11.0059 12.9564C11.0059 10.7925 11.005 8.62847 11.0032 6.46427C11.0032 6.34871 11.0285 6.31669 11.1465 6.31808C11.8594 6.32427 12.5723 6.32427 13.2852 6.31808C13.389 6.31808 13.4101 6.34639 13.4101 6.44664C13.4071 8.56412 13.4071 10.6816 13.4101 12.7991C13.3915 13.3372 13.5534 13.8659 13.8697 14.2995C14.0346 14.5142 14.2404 14.6935 14.4749 14.8267C14.7095 14.96 14.968 15.0445 15.2354 15.0754C15.8191 15.158 16.4137 15.1105 16.9773 14.9362C17.5409 14.762 18.06 14.4653 18.498 14.067C18.5512 14.0256 18.5933 13.9714 18.6205 13.9094C18.6477 13.8474 18.6591 13.7795 18.6537 13.7119C18.6487 11.2964 18.651 8.88078 18.6478 6.4652C18.6478 6.35428 18.6661 6.31623 18.7884 6.31716C19.5052 6.32412 20.2221 6.32226 20.9389 6.31716C21.0221 6.31716 21.0483 6.33433 21.0483 6.4239C21.0458 9.81514 21.0458 13.2062 21.0483 16.5972C21.0483 16.6812 21.0308 16.709 20.9422 16.7086C20.3249 16.7045 19.7077 16.7045 19.0907 16.7086C18.9988 16.7086 18.9763 16.6812 18.9772 16.5911C18.9814 16.154 18.9791 15.7159 18.9791 15.2518Z" fill="white"/>
<path d="M33.8933 10.9682C33.8246 10.7666 33.7767 10.5583 33.7504 10.3468C33.6899 9.94901 33.6592 9.54721 33.6585 9.14478C33.6531 7.49998 34.1632 5.89564 35.1156 4.56144C35.7269 3.68422 36.5036 2.93749 37.4012 2.36409C38.2988 1.79069 39.2996 1.4019 40.3463 1.22001C42.0214 0.878038 43.7596 1.05167 45.3358 1.71844C45.6703 1.86228 45.9939 2.03073 46.304 2.22244C46.3181 2.23458 46.3346 2.24358 46.3524 2.24884C46.3702 2.2541 46.3889 2.25551 46.4072 2.25297C46.4256 2.25043 46.4432 2.24399 46.4589 2.23409C46.4746 2.22419 46.4881 2.21105 46.4984 2.19552C46.6992 1.98807 46.9065 1.78666 47.1123 1.58385C47.1335 1.56297 47.1643 1.52955 47.184 1.53373C47.2208 1.54115 47.2157 1.58803 47.2226 1.62051C47.5207 3.03289 47.8189 4.44526 48.1173 5.85764C48.1412 5.97088 48.1633 6.08458 48.1862 6.19828C48.2028 6.28321 48.1706 6.30873 48.0861 6.2911C47.4847 6.15837 46.883 6.02703 46.2811 5.89709C45.358 5.69629 44.435 5.49519 43.512 5.29377C43.4817 5.28728 43.4353 5.29377 43.427 5.25201C43.4201 5.21906 43.4578 5.20142 43.4789 5.18054C43.7087 4.9522 43.9352 4.72155 44.1682 4.49925C44.2403 4.43103 44.2316 4.40644 44.1484 4.36977C43.7442 4.19453 43.3203 4.06985 42.8861 3.9985C42.1952 3.8988 41.4924 3.92125 40.8091 4.06487C39.8825 4.21362 38.9855 4.51131 38.1521 4.94664C37.142 5.47053 36.254 6.20603 35.5477 7.10403C34.8413 8.00204 34.3328 9.04189 34.056 10.1542C33.9852 10.4201 33.9466 10.6962 33.8933 10.9682Z" fill="#FFCD00"/>
<path d="M37.0543 7.28906C36.9895 7.49744 36.9164 7.68678 36.8672 7.88449C36.6621 8.64938 36.6438 9.45311 36.8138 10.2267C36.9837 11.0004 37.337 11.7208 37.8433 12.3263C38.6588 13.3779 39.8413 14.0752 41.149 14.2754C41.9279 14.4254 42.7307 14.3884 43.4928 14.1674C44.2549 13.9463 44.9548 13.5475 45.5361 13.0029C45.8506 12.7247 46.1312 12.4097 46.372 12.0645C46.4239 11.9884 46.4606 11.9805 46.5282 12.0506C47.1847 12.7288 47.8434 13.405 48.5041 14.0791C48.5538 14.1297 48.5538 14.1594 48.5087 14.2109C47.3059 15.6506 45.6663 16.6492 43.8441 17.0516C42.3112 17.3792 40.719 17.2818 39.2364 16.7697C37.7538 16.2577 36.4359 15.3501 35.4225 14.1432C35.375 14.0876 35.3402 14.0222 35.3205 13.9515C35.0983 13.1484 35.019 12.3118 35.0861 11.4807C35.1857 10.2243 35.6406 9.02323 36.3967 8.02046C36.5671 7.78654 36.7535 7.56494 36.9545 7.35728C36.9782 7.3228 37.0138 7.29847 37.0543 7.28906Z" fill="#FFCD00"/>
<path d="M70.8189 15.2329C70.8189 15.5698 70.8157 15.9063 70.8212 16.2432C70.8251 16.2768 70.817 16.3107 70.7985 16.3389C70.78 16.3671 70.7523 16.3878 70.7201 16.3973C70.1471 16.647 69.5413 16.8117 68.9216 16.8864C68.4057 16.9618 67.8844 16.9928 67.3633 16.9792C65.985 16.947 64.657 16.4501 63.5906 15.5675C62.773 14.927 62.1741 14.0445 61.8776 13.0433C61.6738 12.3532 61.6169 11.6274 61.7106 10.9136C61.8043 10.1997 62.0464 9.51394 62.4212 8.90132C62.8124 8.21398 63.3444 7.61898 63.9818 7.15613C64.6191 6.69327 65.3469 6.37326 66.1166 6.21749C67.6287 5.85959 69.2156 6.0184 70.6287 6.66905C70.8658 6.77672 71.0937 6.90388 71.318 7.03475C71.3786 7.07002 71.3993 7.0923 71.3556 7.16284C71.0101 7.72841 70.6674 8.29599 70.3277 8.86558C70.285 8.93752 70.256 8.92963 70.1986 8.886C69.7393 8.51004 69.2121 8.22776 68.6463 8.05482C68.1479 7.89532 67.6204 7.85054 67.1026 7.92378C66.5848 7.99702 66.0898 8.18642 65.6539 8.47807C65.2808 8.7352 64.9634 9.0664 64.7212 9.45146C64.479 9.83652 64.317 10.2674 64.245 10.7178C64.0696 11.4846 64.1289 12.2871 64.415 13.0192C64.6194 13.5514 64.9598 14.0195 65.4015 14.3758C65.8431 14.7321 66.3704 14.964 66.9296 15.0477C67.5613 15.1618 68.2095 15.1423 68.8334 14.9906C69.4573 14.8388 70.0433 14.558 70.5543 14.1659C70.5731 14.1525 70.5896 14.1353 70.6094 14.1237C70.7266 14.0569 70.8176 14.1056 70.8176 14.2351C70.8188 14.5674 70.8192 14.9 70.8189 15.2329Z" fill="#FFCD00"/>
</g>
<defs>
<clipPath id="clip0_828_76">
<rect width="89" height="21" fill="white"/>
</clipPath>
</defs>
</svg>
