<svg width="153" height="29" viewBox="0 0 153 29" fill="none" xmlns="http://www.w3.org/2000/svg">
<g clip-path="url(#clip0_828_62)">
<path d="M31.8783 8.51489C30.591 8.51489 29.5295 9.54223 29.5295 10.8376V15.7509V20.6642H31.8783V15.7509V10.8376H34.6788H37.4792V8.51489H34.6788H31.8783Z" fill="#E1E1E6"/>
<path d="M51.4814 14.5674V10.8154C51.4814 9.54236 50.4425 8.49268 49.1326 8.49268H45.3384H41.5443C40.257 8.49268 39.1956 9.52001 39.1956 10.8154V14.5674V18.3193C39.1956 19.5923 40.2344 20.642 41.5443 20.642H45.3384H49.1326C50.4199 20.642 51.4814 19.6147 51.4814 18.3193V14.5674ZM49.1326 14.5674V18.3193H45.3384H41.5443V14.5674V10.8154H45.3384H49.1326V14.5674Z" fill="#E1E1E6"/>
<path d="M56.1788 8.51489C54.8916 8.51489 53.8301 9.54223 53.8301 10.8376V14.5895V18.3415C53.8301 19.6145 54.8689 20.6642 56.1788 20.6642L64.4446 20.5525V18.3415H56.1788V14.5895V10.8376H64.4446V8.62652L56.1788 8.51489Z" fill="#E1E1E6"/>
<path d="M77.9071 8.51489H74.7227L70.0704 13.4059H69.1444V8.51489H66.7957V14.5673V20.6419H69.1444V15.7285H70.3188H70.4994L75.3324 20.6419H78.562L72.3513 14.2993L77.9071 8.51489Z" fill="#E1E1E6"/>
<path d="M81.4055 18.3193V15.7287L91.3427 15.617V13.406V10.8154C91.3427 9.54236 90.3032 8.49268 88.9933 8.49268H85.1998H81.4055C80.1181 8.49268 79.0566 9.52001 79.0566 10.8154V14.5674V18.3193C79.0566 19.5923 80.0955 20.642 81.4055 20.642L91.3427 20.5304V18.3193H81.4055ZM81.4055 10.8154H85.1998H88.9933V13.406H86.3736H81.4055V10.8154Z" fill="#E1E1E6"/>
<path d="M97.2367 4.96436H96.334L94.8882 6.72869V8.49302H93.104V10.8156L94.8882 10.7934V18.3196C94.8882 19.5927 95.9269 20.6424 97.2367 20.6424L101.031 20.5306V18.3196H97.2367V10.771L101.37 10.704V8.49302H97.2367V4.96436Z" fill="#E1E1E6"/>
<path d="M113.746 15.7287C113.746 14.4556 112.707 13.406 111.398 13.406H108.439H105.48V10.8154H113.746V8.60438L105.48 8.49268C104.193 8.49268 103.131 9.52001 103.131 10.8154V13.406C103.131 14.679 104.17 15.7287 105.48 15.7287H108.439H111.398V18.3193H103.131V20.5304L111.398 20.642C112.684 20.642 113.746 19.6147 113.746 18.3193V15.7287Z" fill="#E1E1E6"/>
<path d="M126.009 8.51489H122.215H118.42C117.133 8.51489 116.072 9.54223 116.072 10.8376V14.5895V18.3415C116.072 19.6145 117.11 20.6642 118.42 20.6642L128.358 20.5525V18.3415H118.42V15.7509L128.358 15.6392V13.4282V10.8376C128.358 9.54223 127.319 8.51489 126.009 8.51489ZM126.009 13.4059H118.42V10.8152H122.215H126.009V13.4059Z" fill="#E1E1E6"/>
<path d="M140.644 8.51489L130.706 8.62652V10.8376H140.644V13.4282L130.706 13.5399V15.7509V18.3415C130.706 19.6145 131.745 20.6642 133.055 20.6642H136.849H140.644C141.931 20.6642 142.992 19.6369 142.992 18.3415V14.5895V10.8376C142.969 9.54223 141.931 8.51489 140.644 8.51489ZM140.644 18.3192H136.849H133.055V15.7285H140.644V18.3192Z" fill="#E1E1E6"/>
<path d="M148.867 10.7706L153 10.7036V8.49264H148.867V4.94165H147.964L146.518 6.70598V8.47031H144.734V10.793L146.518 10.7706V18.297C146.518 19.5699 147.557 20.6196 148.867 20.6196L152.661 20.508V18.297H148.867V10.7706Z" fill="#E1E1E6"/>
<path d="M23.3194 0.564274L19.5027 0.00594059C19.3897 -0.0163927 19.2769 0.0282712 19.2316 0.0729378L17.6056 2.17227C17.4927 2.30627 17.4701 2.48493 17.5152 2.64127C17.5605 2.7976 17.425 2.9316 17.2669 2.90927L15.9344 2.61893C15.7311 2.57427 15.5052 2.64127 15.3697 2.81994L10.085 9.51993C9.99477 9.65393 9.81406 9.69862 9.65596 9.63158L7.64599 8.7383C7.46531 8.64891 7.26206 8.67126 7.10397 8.78291L6.08768 9.47524C5.92959 9.58689 5.70374 9.60924 5.52307 9.51993L5.02622 9.27429C4.71004 9.11794 4.32612 9.29663 4.23578 9.63158L3.87443 11.2173C3.78409 11.5969 3.94218 11.9766 4.28095 12.1776L5.0488 12.6466L7.51048 14.143L8.70745 14.8799C9.04617 15.0809 9.47534 15.0362 9.76893 14.7906L11.7789 13.0486C11.9369 12.9146 12.1854 12.8699 12.3661 12.9816L12.9758 13.2943C13.1791 13.4059 13.4275 13.3612 13.5856 13.2049L14.6019 12.2669C14.76 12.1106 15.0084 12.0882 15.1891 12.1776L16.7022 12.8699C16.9281 12.9816 17.1991 12.9146 17.3572 12.7136L18.0573 11.8202L23.3646 5.09794C23.613 4.78526 23.4549 4.31627 23.0484 4.22694L21.874 3.95894C21.6256 3.91427 21.5127 3.6016 21.6933 3.42294L23.5227 1.16727C23.7033 0.899273 23.5904 0.60894 23.3194 0.564274Z" fill="#8257E6"/>
<path d="M5.81636 14.0983C5.70344 14.0314 5.59052 14.143 5.63569 14.2547L6.20029 15.7286C6.24546 15.8403 6.24546 15.952 6.22287 16.0637L5.72602 17.9843C5.70344 18.1183 5.74861 18.2523 5.83895 18.3194L7.26174 19.4137C7.39725 19.503 7.57793 19.503 7.69084 19.3913L9.18141 18.096C9.27177 18.029 9.38465 17.9843 9.475 17.962L11.1688 17.7833C11.2818 17.761 11.3269 17.6047 11.214 17.5376L5.81636 14.0983Z" fill="#8257E6"/>
<path d="M5.31959 19.0561C5.22925 18.9892 5.09375 18.9668 4.98083 19.0115L3.78387 19.5921C3.71612 19.6145 3.67095 19.6815 3.62578 19.7485L1.07377 25.9795C1.07377 26.0018 1.07377 26.0018 1.07377 26.0242C1.09636 26.0465 1.11894 26.0689 1.1641 26.0689L1.7513 25.8455C1.77388 25.8455 1.79646 25.8455 1.81904 25.8455C1.84163 25.8678 1.86421 25.9125 1.84163 25.9349L0.0123101 28.9051C-0.0328583 28.9722 0.0574805 29.0391 0.102649 28.9722L6.71981 22.4062C6.78756 22.3392 6.81015 22.2722 6.83273 22.1829L6.96824 20.4855C6.96824 20.3739 6.92307 20.2845 6.85532 20.2175L5.31959 19.0561Z" fill="#8257E6"/>
</g>
<defs>
<clipPath id="clip0_828_62">
<rect width="153" height="29" fill="white"/>
</clipPath>
</defs>
</svg>
